# xmcd
#
# Track frame offsets:
#  182
#  19887
#  31112
#  43627
#  55575
#  66205
#  75632
#  88200
#  98295
#  108225
#  117957
#  126675
#  138042
#  151425
#  162397
#  170325
#
# Disc length: 2397 seconds
#
# Revision: 0
# Processed by: cddbd v1.5.1PL0 Copyright (c) Steve Scherf et al.
# Submitted via: Collectorz.com Music Collector 6.9
#
DISCID=c7095b10
DTITLE=Various Artist - All Time Country Hits
DYEAR=1900
DGENRE=Country
TTITLE0=Marty Robins - El Paso
TTITLE1=Don Gibson - Sea Of A Heartbreak
TTITLE2=Bob Luman - The Great Snowman
TTITLE3=Jim Reeves - Mexican Joe
TTITLE4=Slim Whitman - Rose Marie
TTITLE5=Bobby Helms - A Fool Such As I
TTITLE6=Johnny Cash - Folsom Prison Blues
TTITLE7=Conway Twitty - It´s Only Make Believe
TTITLE8=Johnny Horton - Honky Tonk Man
TTITLE9=Faron Young - Sweet Dreams
TTITLE10=Ferlin Husky - Wings Of A Dove
TTITLE11=Patsy Cline - Walking After Midnight
TTITLE12=Jerry Lee Lewis - The Ballad Of Billy Joe
TTITLE13=Carl Perkins - Dixiefried
TTITLE14=John D Loudermilk - Language Of Love
TTITLE15=Floyd Cramer - On The Rebound
EXTD=
EXTT0=
EXTT1=
EXTT2=
EXTT3=
EXTT4=
EXTT5=
EXTT6=
EXTT7=
EXTT8=
EXTT9=
EXTT10=
EXTT11=
EXTT12=
EXTT13=
EXTT14=
EXTT15=
PLAYORDER=
